<?xml version="1.0" encoding="UTF-8" standalone="no"?>
<svg
   xmlns:dc="http://purl.org/dc/elements/1.1/"
   xmlns:cc="http://creativecommons.org/ns#"
   xmlns:rdf="http://www.w3.org/1999/02/22-rdf-syntax-ns#"
   xmlns:svg="http://www.w3.org/2000/svg"
   xmlns="http://www.w3.org/2000/svg"
   viewBox="0 0 1261.5333 1261.5468"
   height="1261.5468"
   width="1261.5333"
   xml:space="preserve"
   id="svg2"
   version="1.1"><metadata
     id="metadata8"><rdf:RDF><cc:Work
         rdf:about=""><dc:format>image/svg+xml</dc:format><dc:type
           rdf:resource="http://purl.org/dc/dcmitype/StillImage" /></cc:Work></rdf:RDF></metadata><defs
     id="defs6"><clipPath
       id="clipPath18"
       clipPathUnits="userSpaceOnUse"><path
         id="path16"
         d="M 0,946.16 H 946.15 V 0 H 0 Z" /></clipPath></defs><g
     transform="matrix(1.3333333,0,0,-1.3333333,0,1261.5467)"
     id="g10"><g
       id="g12"><g
         clip-path="url(#clipPath18)"
         id="g14"><g
           transform="translate(406.2109,718.2135)"
           id="g20"><path
             id="path22"
             style="fill:#82dfd8;fill-opacity:1;fill-rule:nonzero;stroke:none"
             d="M 0,0 C -13.13,-3.01 -11.74,-26.26 4.43,-25.91 23.97,-25.49 21.16,4.84 0,0 m 123.43,1.15 c -15.14,-3.03 -11.3,-28.17 5.24,-26.31 17.82,2.01 14.35,30.23 -5.24,26.31 m 58.18,-25.61 c -12.97,-3 -12.45,-26.21 4.43,-25.91 18.92,0.34 16.76,30.81 -4.43,25.91 m 92,-85.02 c -15.39,-3.15 -12.56,-28.03 4.24,-26.46 18.29,1.7 14.99,30.4 -4.24,26.46 M 123.43,1.15 c -15.14,-3.03 -11.3,-28.17 5.24,-26.31 17.82,2.01 14.35,30.23 -5.24,26.31 M 0,0 C -13.13,-3.01 -11.74,-26.26 4.43,-25.91 23.97,-25.49 21.16,4.84 0,0 m 273.61,-109.48 c -15.39,-3.15 -12.56,-28.03 4.24,-26.46 18.29,1.7 14.99,30.4 -4.24,26.46 m -92,85.02 c -12.97,-3 -12.45,-26.21 4.43,-25.91 18.92,0.34 16.76,30.81 -4.43,25.91 M 0,0 C -13.13,-3.01 -11.74,-26.26 4.43,-25.91 23.97,-25.49 21.16,4.84 0,0 m 123.43,1.15 c -15.14,-3.03 -11.3,-28.17 5.24,-26.31 17.82,2.01 14.35,30.23 -5.24,26.31 m 58.18,-25.61 c -12.97,-3 -12.45,-26.21 4.43,-25.91 18.92,0.34 16.76,30.81 -4.43,25.91 m -4.34,-423.01 c -11.51,-12.33 7.22,-30.56 19.42,-18.85 13.05,12.54 -6.82,32.34 -19.42,18.85 m 96.09,91.93 c -18.35,0.4 -18.49,-29.64 3.4,-26.09 13.16,2.13 13.46,25.72 -3.4,26.09 m 0.25,246.06 c -15.39,-3.15 -12.56,-28.03 4.24,-26.46 18.29,1.7 14.99,30.4 -4.24,26.46 m 24.44,-65.22 c -13.21,-2.69 -12.68,-23.75 1.46,-26.04 20.11,-3.28 20.75,30.57 -1.46,26.04 m 1.18,-118.77 c -15.76,-2.76 -12.98,-28.07 4.23,-26.46 16.77,1.58 14.7,29.76 -4.23,26.46 m 0,0 c -15.76,-2.76 -12.98,-28.07 4.23,-26.46 16.77,1.58 14.7,29.76 -4.23,26.46 m -1.18,118.77 c -13.21,-2.69 -12.68,-23.75 1.46,-26.04 20.11,-3.28 20.75,30.57 -1.46,26.04 m -24.69,-180.84 c -18.35,0.4 -18.49,-29.64 3.4,-26.09 13.16,2.13 13.46,25.72 -3.4,26.09 m -96.09,-91.93 c -11.51,-12.33 7.22,-30.56 19.42,-18.85 13.05,12.54 -6.82,32.34 -19.42,18.85 M 123.43,1.15 c -15.14,-3.03 -11.3,-28.17 5.24,-26.31 17.82,2.01 14.35,30.23 -5.24,26.31 M 0,0 C -13.13,-3.01 -11.74,-26.26 4.43,-25.91 23.97,-25.49 21.16,4.84 0,0 m 273.61,-109.48 c -15.39,-3.15 -12.56,-28.03 4.24,-26.46 18.29,1.7 14.99,30.4 -4.24,26.46 m -92,85.02 c -12.97,-3 -12.45,-26.21 4.43,-25.91 18.92,0.34 16.76,30.81 -4.43,25.91 m -328.27,-330.73 c -13.79,-2.82 -12.34,-26.58 4.2,-26.11 18.51,0.52 16.15,30.26 -4.2,26.11 m 84.96,-84.99 c -14,-3.23 -11.56,-27.61 4.27,-26.48 19.24,1.36 15.17,30.97 -4.27,26.48 M 0,0 C -13.13,-3.01 -11.74,-26.26 4.43,-25.91 23.97,-25.49 21.16,4.84 0,0 m 3.55,-464.65 c -18.44,-1.01 -16.42,-28.27 2.03,-26.56 15.63,1.44 14.84,27.48 -2.03,26.56 m 115.19,-1.14 c -12.51,-2.86 -11.87,-24.61 3.22,-25.45 20.85,-1.17 18.99,30.52 -3.22,25.45 m 4.69,466.94 c -15.14,-3.03 -11.3,-28.17 5.24,-26.31 17.82,2.01 14.35,30.23 -5.24,26.31 m 58.18,-25.61 c -12.97,-3 -12.45,-26.21 4.43,-25.91 18.92,0.34 16.76,30.81 -4.43,25.91 m -4.34,-423.01 c -11.51,-12.33 7.22,-30.56 19.42,-18.85 13.05,12.54 -6.82,32.34 -19.42,18.85 m 96.09,91.93 c -18.35,0.4 -18.49,-29.64 3.4,-26.09 13.16,2.13 13.46,25.72 -3.4,26.09 m 0.25,246.06 c -15.39,-3.15 -12.56,-28.03 4.24,-26.46 18.29,1.7 14.99,30.4 -4.24,26.46 m 24.44,-65.22 c -13.21,-2.69 -12.68,-23.75 1.46,-26.04 20.11,-3.28 20.75,30.57 -1.46,26.04 m 1.18,-118.77 c -15.76,-2.76 -12.98,-28.07 4.23,-26.46 16.77,1.58 14.7,29.76 -4.23,26.46 m 0,0 c -15.76,-2.76 -12.98,-28.07 4.23,-26.46 16.77,1.58 14.7,29.76 -4.23,26.46 m -1.18,118.77 c -13.21,-2.69 -12.68,-23.75 1.46,-26.04 20.11,-3.28 20.75,30.57 -1.46,26.04 m -24.69,-180.84 c -18.35,0.4 -18.49,-29.64 3.4,-26.09 13.16,2.13 13.46,25.72 -3.4,26.09 m -96.09,-91.93 c -11.51,-12.33 7.22,-30.56 19.42,-18.85 13.05,12.54 -6.82,32.34 -19.42,18.85 m -58.53,-18.32 c -12.51,-2.86 -11.87,-24.61 3.22,-25.45 20.85,-1.17 18.99,30.52 -3.22,25.45 m -115.19,1.14 c -18.44,-1.01 -16.42,-28.27 2.03,-26.56 15.63,1.44 14.84,27.48 -2.03,26.56 m -65.25,24.47 c -14,-3.23 -11.56,-27.61 4.27,-26.48 19.24,1.36 15.17,30.97 -4.27,26.48 m -84.96,84.99 c -13.79,-2.82 -12.34,-26.58 4.2,-26.11 18.51,0.52 16.15,30.26 -4.2,26.11 M 123.43,1.15 c -15.14,-3.03 -11.3,-28.17 5.24,-26.31 17.82,2.01 14.35,30.23 -5.24,26.31 M 0,0 C -13.13,-3.01 -11.74,-26.26 4.43,-25.91 23.97,-25.49 21.16,4.84 0,0 m 273.61,-109.48 c -15.39,-3.15 -12.56,-28.03 4.24,-26.46 18.29,1.7 14.99,30.4 -4.24,26.46 m -92,85.02 c -12.97,-3 -12.45,-26.21 4.43,-25.91 18.92,0.34 16.76,30.81 -4.43,25.91 m -347.48,-177.7 c 17.02,1.95 14.85,30.41 -5.24,26.3 -15.67,-3.21 -11.54,-28.21 5.24,-26.3 m 0.17,-116.6 c 16.77,1.59 14.71,29.55 -4.22,26.47 -15.4,-2.5 -13.43,-28.15 4.22,-26.47 m 23.24,-62.54 c 18.51,0.52 16.15,30.26 -4.2,26.11 -13.79,-2.82 -12.34,-26.58 4.2,-26.11 m 1.22,243.06 c 17.68,1.96 12.76,29.7 -4.23,26.48 -16.24,-3.08 -14.44,-28.56 4.23,-26.48 m 79.54,-301.94 c -14,-3.23 -11.56,-27.61 4.27,-26.48 19.24,1.36 15.17,30.97 -4.27,26.48 m 6.43,387.08 c 18.11,2.03 13.92,30.73 -5.27,26.31 -13.84,-3.18 -11.76,-28.23 5.27,-26.31 m 59.7,27.19 C 23.97,-25.49 21.16,4.84 0,0 -13.13,-3.01 -11.74,-26.26 4.43,-25.91 m 1.15,-465.3 c 15.63,1.44 14.84,27.48 -2.03,26.56 -18.44,-1.01 -16.42,-28.27 2.03,-26.56 m 113.16,25.42 c -12.51,-2.86 -11.87,-24.61 3.22,-25.45 20.85,-1.17 18.99,30.52 -3.22,25.45 m 4.69,466.94 c -15.14,-3.03 -11.3,-28.17 5.24,-26.31 17.82,2.01 14.35,30.23 -5.24,26.31 m 62.61,-51.52 c 18.92,0.34 16.76,30.81 -4.43,25.91 -12.97,-3 -12.45,-26.21 4.43,-25.91 m -8.77,-397.1 c -11.51,-12.33 7.22,-30.56 19.42,-18.85 13.05,12.54 -6.82,32.34 -19.42,18.85 m 96.09,91.93 c -18.35,0.4 -18.49,-29.64 3.4,-26.09 13.16,2.13 13.46,25.72 -3.4,26.09 m 0.25,246.06 c -15.39,-3.15 -12.56,-28.03 4.24,-26.46 18.29,1.7 14.99,30.4 -4.24,26.46 m 24.44,-65.22 c -13.21,-2.69 -12.68,-23.75 1.46,-26.04 20.11,-3.28 20.75,30.57 -1.46,26.04 m 1.18,-118.77 c -15.76,-2.76 -12.98,-28.07 4.23,-26.46 16.77,1.58 14.7,29.76 -4.23,26.46 m 141.53,-92.03 c -17.47,-0.94 -24.26,5.8 -38.45,11.69 -44.56,18.51 -90.49,34.65 -134.38,54.23 l 10.48,39.97 c 33.1,-3.62 69.12,-6.04 101.4,-14.23 7.48,-1.89 16.04,-3.97 20.55,-10.89 4.39,-6.74 6.82,-17.84 -3.87,-19.04 -17.86,-2.01 -7.97,15.4 -10.4,18.73 -23.48,7.74 -25.54,-27.21 -8,-34.77 19.11,-8.24 40.72,1.99 42.28,23.58 2.73,37.58 -38.11,40.14 -65.95,43.57 -24.77,3.06 -50.01,4 -74.94,4.81 l 1.15,15.14 c 4.98,0.93 9.88,-1.06 14.51,-1.22 42.45,-1.45 95.55,-2.03 137.41,2.39 5.43,0.57 14.25,0.81 18.05,4.63 -27.82,5.56 -56.31,3.33 -84.35,5.89 l -85.61,-1.22 c -0.02,5.62 0.02,11.26 0,16.89 0,0.29 -1.38,0.93 -0.68,1.76 1.54,2.23 16.17,0.9 19.93,1.1 22.93,1.22 91.58,5.33 108.73,17.01 29.67,20.21 11,70.17 -27.14,55.1 -16.14,-6.38 -17.9,-35.42 1,-36.05 12.42,-0.42 1.47,10.91 7.86,18.45 20.39,7.75 20.07,-13.99 7.3,-23.02 -9.07,-6.42 -41.44,-10.7 -53.75,-12.61 -21.62,-3.36 -43.68,-6.01 -65.47,-7.06 l -9.52,38.71 147.97,64.2 c 76.54,24.25 112.01,-93.98 108.23,-150.18 -2.76,-41.02 -35.73,-124.96 -84.34,-127.56 M 383.1,-577.04 c -38.86,-33.88 -139.28,-76.22 -166.21,-9.02 -19.28,48.09 -38.76,96.24 -60.29,143.48 l -0.53,3.54 c 6.42,-0.77 35.26,21 37.14,19.72 10.06,-14.03 21.7,-26.94 32.03,-40.77 7.89,-10.58 33.66,-44.68 35.32,-55.49 1.33,-8.68 -3.57,-24.32 -14.83,-19.49 -0.96,0.4 -5.28,4.95 -5.61,6.03 -2.09,6.84 5.58,11.5 10.32,14.97 -3.4,9.79 -13.59,12.85 -22.11,6.83 -26.51,-18.72 9.4,-62.69 38.35,-38.36 26.9,22.62 4.34,50.78 -11.19,71.51 -16.31,21.77 -35.46,42.55 -54,62.42 l 11.04,9.88 41.3,-43.68 c 25.09,-21.62 47.88,-49.06 74.63,-68.58 0.81,-0.58 9.82,-7.01 8.04,-2.44 -0.92,2.37 -9.84,12.95 -12.19,15.76 -9.93,11.85 -21.94,24.79 -32.6,36.09 -22.39,23.74 -46.6,45.88 -69.9,68.72 -2.17,4.69 8.57,9.85 9.91,14.6 l 1.58,0.4 c 20.2,-16.93 39.27,-35.48 60.26,-51.59 9.06,-6.95 30.24,-23.52 40.61,-25.75 28.24,-6.07 55.07,22.76 34.97,47.79 -8.37,10.43 -19.78,14.95 -32.08,7.58 -11.89,-7.14 -13.09,-21.91 0.05,-27.94 5.47,7.65 13.26,17.7 20.88,5.72 5.91,-9.3 -6.93,-16.24 -15.07,-16.24 -11.37,-0.01 -42.9,23.99 -53.34,31.64 -16.65,12.2 -32.95,25.36 -48.35,38.97 l 19.63,35.35 154.73,-62.4 c 64.52,-37.24 8.31,-143.67 -32.49,-179.25 M 54.22,-703.36 c -41.07,2.76 -124.96,35.62 -127.53,84.37 -0.94,17.96 5.69,23.95 11.71,38.44 18.52,44.55 34.55,90.57 54.2,134.44 l 39.95,-10.5 c -1.65,-20.71 -3.9,-41.45 -7.06,-62 -2.01,-13.03 -6.39,-46.81 -13.78,-56.08 -5.58,-7 -21.85,-12.84 -23.3,-0.03 -1.56,13.76 8.76,11.4 18.54,10.02 8.47,23.45 -26.29,25.95 -34.25,9.24 -8.76,-18.4 0.76,-41.09 22.14,-43.09 35.82,-3.36 39.74,30.89 43.48,57.79 3.79,27.22 5.08,55.63 6,83.09 l 15.13,-1.15 c 0.85,-4.61 -1.07,-9.05 -1.22,-13.35 -1.49,-42.63 -2.13,-96.62 2.39,-138.62 0.58,-5.44 0.8,-14.24 4.63,-18.05 5.65,29 3.35,58.65 5.88,87.87 l -1.21,82.14 c 5.59,0.25 11.3,-0.34 16.88,0 0.32,0.02 0.93,1.22 1.73,1.18 1.62,-1.2 1.95,-34.6 2.36,-40.18 1.44,-19.62 5.42,-74.29 15.78,-89.02 21.01,-29.87 69.99,-10.6 55.08,27.15 -6.37,16.15 -35.41,17.91 -36.04,-1 -0.41,-12.42 10.91,-1.47 18.44,-7.86 7.69,-20.3 -13.95,-20.27 -23.02,-7.31 -6.83,9.77 -11.79,47.31 -13.76,60.76 -2.83,19.34 -5.13,38.96 -5.9,58.49 l 38.71,9.53 64.17,-148.01 c 24,-76.68 -93.8,-112.05 -150.13,-108.26 m -320.18,143.21 c -33.35,38.85 -74.33,138.43 -7.85,165.09 48.07,19.28 96.2,38.79 143.44,60.3 l 3.54,0.53 c -0.97,-6.62 21.01,-35.25 19.71,-37.15 -18.37,-13.54 -35.67,-28.54 -54.26,-41.82 -9.05,-6.46 -33.25,-24.65 -42.97,-25.74 -8.48,-0.95 -23.12,4.19 -18.49,15.03 0.41,0.95 4.96,5.28 6.04,5.61 6.83,2.08 11.49,-5.59 14.96,-10.33 9.79,3.4 12.84,13.6 6.83,22.12 -18.72,26.53 -62.73,-9.33 -38.35,-38.36 22.61,-26.91 50.76,-4.34 71.49,11.2 21.79,16.33 42.46,35.49 62.4,54.01 l 9.88,-11.05 -40.17,-37.81 c -21.91,-24.44 -47.7,-47.15 -68.04,-72.85 -1.85,-2.33 -7.49,-9.41 -8.17,-11.63 -0.46,-1.5 0.24,-2.28 1.71,-1.71 2.37,0.92 12.95,9.85 15.75,12.2 12.22,10.23 25.61,22.75 37.26,33.77 23.31,22.04 45.05,45.86 67.52,68.76 4.7,2.16 9.84,-8.56 14.58,-9.91 l 0.48,-1.68 c -17.11,-20.08 -35.54,-39.21 -51.63,-60.19 -6.78,-8.84 -23.12,-29.71 -25.52,-39.68 -8.3,-34.55 32.61,-60.01 54.43,-28.83 14.67,20.97 -13.08,49.52 -27.12,24.93 7.54,-5.55 17.58,-13.24 5.6,-20.86 -9.29,-5.91 -16.23,6.93 -16.23,15.07 -0.01,11.17 20.9,38.66 28.14,48.69 13.22,18.32 27.6,36.14 42.45,53.03 l 35.34,-19.64 -62.38,-154.76 c -37.5,-65.01 -144.91,-7.64 -180.37,33.66 m -125.19,325.54 c 2.23,39.69 31.71,117.31 74.56,128.04 22.77,5.71 29.76,-2.23 48.29,-9.94 43.85,-18.24 88.59,-34.51 132.51,-52.6 l 1.82,-2.44 -10.42,-39.13 c -20.71,1.65 -41.45,3.91 -61.99,7.07 -13.07,2.01 -46.73,6.33 -56.07,13.78 -6.99,5.58 -12.84,21.86 -0.02,23.31 13.49,1.52 11.31,-8.87 10.01,-18.55 23.44,-8.47 25.94,26.3 9.24,34.26 -17.59,8.39 -40.82,-0.29 -43.1,-20.97 -4.06,-36.77 30.23,-40.83 57.8,-44.67 26.84,-3.74 54.83,-5 81.91,-5.98 v -15.15 c -4.6,-0.86 -9.04,1.06 -13.34,1.21 -42.63,1.5 -96.59,2.14 -138.58,-2.38 -5.45,-0.59 -14.24,-0.81 -18.05,-4.64 28.61,-5.57 57.86,-3.36 86.68,-5.88 l 83.29,1.21 v -18.05 l -2.92,-1.74 c -27.61,-0.78 -56.33,-2.02 -83.65,-5.99 -28.36,-4.12 -59.9,-8.69 -55.34,-45.7 3.54,-28.68 52.12,-31.81 53.48,-1.33 0.31,7.02 -1.72,14.34 -9.33,16.36 -20.96,5.58 -0.27,-19.2 -18.08,-19.33 -14.32,-0.11 -11.47,14.82 -4.54,22.1 7.51,7.9 31.18,10.57 42.16,12.56 26.51,4.79 53.5,8.23 80.43,9.56 l 9.52,-38.72 -147.97,-64.19 c -76.01,-23.8 -111.44,91.93 -108.3,147.92 m 143.87,323.06 c 32.95,28.15 119.03,65.27 153.65,25.66 9.53,-10.91 10.11,-20.45 15.13,-32.61 18.03,-43.64 37.71,-86.66 56.31,-130.06 l -1,-2.11 -36,-20.3 c -11.52,15.71 -24.43,30.42 -35.99,46.12 -7.54,10.24 -29.7,39.3 -31.36,50.14 -0.36,2.32 -0.47,4.25 -0.19,6.6 3.34,27.55 37.4,6.97 10.31,-8.11 8.47,-20.3 32.04,-5.82 31.6,11.71 -0.23,9.02 -8.11,18.52 -15.58,22.94 -24.61,14.56 -49.87,-12.62 -43.54,-37.73 5.04,-20 42.58,-61.98 57.26,-78.96 2.99,-3.46 16.42,-16.3 17.51,-18.63 2.06,-4.44 -7.33,-7.79 -9.34,-11.61 l -41.3,43.67 c -25.09,21.63 -47.87,49.07 -74.63,68.58 -0.81,0.59 -9.82,7.01 -8.04,2.45 0.92,-2.37 9.85,-12.96 12.19,-15.76 9.93,-11.85 21.94,-24.8 32.6,-36.1 22.39,-23.74 46.6,-45.88 69.9,-68.71 2.17,-4.7 -8.55,-9.84 -9.9,-14.58 l -1.68,-0.48 c -20.07,17.12 -39.19,35.55 -60.17,51.64 -8.84,6.78 -29.7,23.13 -39.68,25.53 -28.36,6.82 -56.36,-22.07 -35.9,-47.56 8.38,-10.44 19.79,-14.96 32.08,-7.58 11.78,7.07 12.97,21.97 -0.05,27.93 -5.47,-7.64 -13.26,-17.69 -20.88,-5.71 -5.91,9.3 6.94,16.24 15.07,16.24 11.56,0 42.79,-23.91 53.34,-31.65 16.66,-12.21 32.98,-25.31 48.35,-38.97 l -19.63,-35.34 -150.96,60.34 c -71,35.76 -12.24,146.47 30.52,183.01 M 77.54,213.13 c 41.54,-2.33 126.04,-34.47 129.73,-83.33 1.35,-17.92 -5.57,-25 -11.64,-39.56 C 177.37,46.38 161.02,1.69 143.03,-42.29 l -2.44,-1.82 -39.12,10.42 c 1.55,20.71 3.89,41.46 7.06,62 2.02,13.1 6.32,46.74 13.78,56.09 5.58,7 21.86,12.84 23.31,0.02 1.97,-17.52 -15.44,-7.99 -18.73,-10.4 -3.56,-8.24 1.07,-17.91 10.07,-19.2 36.41,-5.23 35.77,49.89 3.4,53.46 C 100.89,112.63 98.08,71.3 94.51,42.34 91.46,17.56 90.52,-7.69 89.7,-32.63 l -15.13,1.16 c -0.93,4.98 1.06,9.88 1.22,14.51 1.45,42.47 2.03,95.58 -2.39,137.45 -0.57,5.43 -0.81,14.25 -4.63,18.06 C 63.21,110.72 65.44,82.22 62.89,54.17 L 64.1,-31.46 H 44.31 c -0.5,25.63 -1.63,51.81 -4.81,77.29 -3.71,29.79 -6.64,69.59 -46.87,64.64 -28.52,-3.51 -31.59,-51.13 -2.44,-53.42 12.43,-0.97 19.48,5.09 17.86,17.87 -1.7,5.09 -18.84,-4.41 -19.64,8.32 -0.6,9.33 2.82,12.3 11.97,10.77 15.36,-2.55 17.7,-22.07 20.28,-34.43 6.3,-30.2 9.49,-61.91 12.08,-92.66 L -6.16,-43.2 -70.33,104.81 C -94.39,180.74 21.7,216.27 77.54,213.13 M 222.4,-373.21 c -102.22,-124.73 -305.31,-82.42 -348.89,72.5 -33.63,119.52 49.2,246.33 174.06,256.09 179.13,14 288.89,-189.4 174.83,-328.59 m -2.79,476.73 c 37.7,65.36 144.68,7.54 180.37,-33.66 33.11,-38.21 74.57,-139.4 7.87,-165.11 -48.31,-18.62 -96.12,-38.99 -143.46,-60.29 l -3.53,-0.53 c -3.65,13.03 -12.89,24.22 -19.69,35.72 l 0.39,1.56 c 17.85,13.99 35.37,28.52 53.84,41.7 9.57,6.83 32.39,24.54 42.97,25.74 8.48,0.96 23.12,-4.2 18.49,-15.03 -0.41,-0.96 -4.95,-5.28 -6.03,-5.61 -6.84,-2.09 -11.5,5.58 -14.96,10.32 -9.8,-3.4 -12.85,-13.6 -6.84,-22.11 18.69,-26.48 62.66,9.41 38.35,38.35 -23.75,28.28 -54.9,1.65 -76.15,-14.68 -20.11,-15.47 -39.25,-33.16 -57.74,-50.52 l -9.88,11.04 c 26.62,26.03 54.3,51.42 79.74,78.59 10.26,10.95 23.98,25.35 32.48,37.38 0.66,0.94 7.02,9.82 2.45,8.04 -3.15,-1.23 -18.96,-14.77 -22.74,-18.02 -9.85,-8.48 -19.64,-17.83 -29.1,-26.79 -23.7,-22.44 -45.89,-46.58 -68.69,-69.92 -4.7,-2.17 -9.85,8.57 -14.6,9.92 l -0.4,1.57 c 16.84,20.27 35.46,39.33 51.57,60.29 6.95,9.03 23.53,30.27 25.75,40.62 7.3,33.98 -33.01,58.82 -54.66,27.89 -14.37,-20.54 11.83,-49.16 27.22,-24.95 -7.63,5.47 -17.68,13.26 -5.7,20.88 9.3,5.91 16.23,-6.94 16.24,-15.07 0,-10.54 -19.09,-35.72 -25.82,-45.2 -13.87,-19.54 -29.05,-38.58 -44.78,-56.52 l -35.34,19.64 z m 304.04,-276.76 c -15.02,40.29 -39.07,79.62 -87.01,81.23 29.84,30.87 20.34,73.8 7,110.06 -21.66,58.87 -63.39,96.79 -121.97,117.88 -35.71,12.85 -71.77,16.35 -101.56,-11.35 -0.35,11.97 -3.58,23.77 -9.55,34.12 -18.07,31.34 -71.49,55.62 -105.7,63.12 -7.34,1.61 -14.89,2.19 -22.13,4.07 H 52.46 c -17.53,-1.33 -39.9,-7.87 -56.48,-13.96 -40.58,-14.88 -80.39,-39.04 -82.07,-87.35 -27.27,26.25 -61.83,21.96 -95.18,11.95 -66.52,-19.96 -109.24,-61.76 -132.69,-126.95 -12.85,-35.73 -16.35,-71.8 11.35,-101.59 -11.97,-0.35 -23.78,-3.58 -34.12,-9.55 -35.38,-20.41 -63.98,-88.44 -67.17,-127.87 -0.78,-9.74 0.58,-20.42 0,-30.27 l 4.29,-24.24 c 12.62,-49.54 36.75,-112.36 97,-114.35 -26.25,-27.27 -21.96,-61.84 -11.96,-95.2 18.33,-61.12 54.97,-102.42 113.62,-127.41 38.56,-16.42 81.04,-25.58 114.86,6.03 0.46,-40.85 36.17,-65.74 69.44,-81.35 52.62,-24.69 100.21,-26.16 154.7,-6.01 40.48,14.98 80.4,39.09 82.06,87.36 27.3,-26.19 61.79,-21.93 95.18,-11.96 61.15,18.27 102.92,55.67 127.71,114.47 16.22,38.47 25.02,80.45 -6.36,114.07 37.94,0.51 61.69,30.87 77.44,61.71 28.17,55.17 31.29,105.09 9.57,163.34 M 181.61,-24.46 c -12.97,-3 -12.45,-26.21 4.43,-25.91 18.92,0.34 16.76,30.81 -4.43,25.91 m 92,-85.02 c -15.39,-3.15 -12.56,-28.03 4.24,-26.46 18.29,1.7 14.99,30.4 -4.24,26.46 M 0,0 C -13.13,-3.01 -11.74,-26.26 4.43,-25.91 23.97,-25.49 21.16,4.84 0,0 m 123.43,1.15 c -15.14,-3.03 -11.3,-28.17 5.24,-26.31 17.82,2.01 14.35,30.23 -5.24,26.31 m -289.3,-203.31 c 17.02,1.95 14.85,30.41 -5.24,26.3 -15.67,-3.21 -11.54,-28.21 5.24,-26.3 m -4.05,-90.13 c -15.4,-2.5 -13.43,-28.15 4.22,-26.47 16.77,1.59 14.71,29.55 -4.22,26.47 m 23.26,-62.9 c -13.79,-2.82 -12.34,-26.58 4.2,-26.11 18.51,0.52 16.15,30.26 -4.2,26.11 m 84.96,-84.99 c -14,-3.23 -11.56,-27.61 4.27,-26.48 19.24,1.36 15.17,30.97 -4.27,26.48 m 65.25,-24.47 c -18.44,-1.01 -16.42,-28.27 2.03,-26.56 15.63,1.44 14.84,27.48 -2.03,26.56 m 115.19,-1.14 c -12.51,-2.86 -11.87,-24.61 3.22,-25.45 20.85,-1.17 18.99,30.52 -3.22,25.45 m 58.53,18.32 c -11.51,-12.33 7.22,-30.56 19.42,-18.85 13.05,12.54 -6.82,32.34 -19.42,18.85 m 96.09,91.93 c -18.35,0.4 -18.49,-29.64 3.4,-26.09 13.16,2.13 13.46,25.72 -3.4,26.09 m 26.15,154.8 c 20.11,-3.28 20.75,30.57 -1.46,26.04 -13.21,-2.69 -12.68,-23.75 1.46,-26.04 m -0.28,-92.73 c -15.76,-2.76 -12.98,-28.07 4.23,-26.46 16.77,1.58 14.7,29.76 -4.23,26.46 m 0,0 c -15.76,-2.76 -12.98,-28.07 4.23,-26.46 16.77,1.58 14.7,29.76 -4.23,26.46 m -1.18,118.77 c -13.21,-2.69 -12.68,-23.75 1.46,-26.04 20.11,-3.28 20.75,30.57 -1.46,26.04 m -24.44,65.22 c -15.39,-3.15 -12.56,-28.03 4.24,-26.46 18.29,1.7 14.99,30.4 -4.24,26.46 m -0.25,-246.06 c -18.35,0.4 -18.49,-29.64 3.4,-26.09 13.16,2.13 13.46,25.72 -3.4,26.09 m -96.09,-91.93 c -11.51,-12.33 7.22,-30.56 19.42,-18.85 13.05,12.54 -6.82,32.34 -19.42,18.85 m 4.34,423.01 c -12.97,-3 -12.45,-26.21 4.43,-25.91 18.92,0.34 16.76,30.81 -4.43,25.91 M 123.43,1.15 c -15.14,-3.03 -11.3,-28.17 5.24,-26.31 17.82,2.01 14.35,30.23 -5.24,26.31 m -4.69,-466.94 c -12.51,-2.86 -11.87,-24.61 3.22,-25.45 20.85,-1.17 18.99,30.52 -3.22,25.45 m -115.19,1.14 c -18.44,-1.01 -16.42,-28.27 2.03,-26.56 15.63,1.44 14.84,27.48 -2.03,26.56 M 0,0 C -13.13,-3.01 -11.74,-26.26 4.43,-25.91 23.97,-25.49 21.16,4.84 0,0 m -61.7,-440.18 c -14,-3.23 -11.56,-27.61 4.27,-26.48 19.24,1.36 15.17,30.97 -4.27,26.48 m -84.96,84.99 c -13.79,-2.82 -12.34,-26.58 4.2,-26.11 18.51,0.52 16.15,30.26 -4.2,26.11 m -23.26,62.9 c -15.4,-2.5 -13.43,-28.15 4.22,-26.47 16.77,1.59 14.71,29.55 -4.22,26.47 m -1.19,116.43 c -15.67,-3.21 -11.54,-28.21 5.24,-26.3 17.02,1.95 14.85,30.41 -5.24,26.3 m 352.72,151.4 c -12.97,-3 -12.45,-26.21 4.43,-25.91 18.92,0.34 16.76,30.81 -4.43,25.91 m 92,-85.02 c -15.39,-3.15 -12.56,-28.03 4.24,-26.46 18.29,1.7 14.99,30.4 -4.24,26.46 M 0,0 C -13.13,-3.01 -11.74,-26.26 4.43,-25.91 23.97,-25.49 21.16,4.84 0,0 m 123.43,1.15 c -15.14,-3.03 -11.3,-28.17 5.24,-26.31 17.82,2.01 14.35,30.23 -5.24,26.31 M 3.55,-464.65 c -18.44,-1.01 -16.42,-28.27 2.03,-26.56 15.63,1.44 14.84,27.48 -2.03,26.56 m 115.19,-1.14 c -12.51,-2.86 -11.87,-24.61 3.22,-25.45 20.85,-1.17 18.99,30.52 -3.22,25.45 m 58.53,18.32 c -11.51,-12.33 7.22,-30.56 19.42,-18.85 13.05,12.54 -6.82,32.34 -19.42,18.85 m 96.09,91.93 c -18.35,0.4 -18.49,-29.64 3.4,-26.09 13.16,2.13 13.46,25.72 -3.4,26.09 m 24.69,180.84 c -13.21,-2.69 -12.68,-23.75 1.46,-26.04 20.11,-3.28 20.75,30.57 -1.46,26.04 m 1.18,-118.77 c -15.76,-2.76 -12.98,-28.07 4.23,-26.46 16.77,1.58 14.7,29.76 -4.23,26.46 m 0,0 c -15.76,-2.76 -12.98,-28.07 4.23,-26.46 16.77,1.58 14.7,29.76 -4.23,26.46 m -1.18,118.77 c -13.21,-2.69 -12.68,-23.75 1.46,-26.04 20.11,-3.28 20.75,30.57 -1.46,26.04 m -24.44,65.22 c -15.39,-3.15 -12.56,-28.03 4.24,-26.46 18.29,1.7 14.99,30.4 -4.24,26.46 m -0.25,-246.06 c -18.35,0.4 -18.49,-29.64 3.4,-26.09 13.16,2.13 13.46,25.72 -3.4,26.09 m -96.09,-91.93 c -11.51,-12.33 7.22,-30.56 19.42,-18.85 13.05,12.54 -6.82,32.34 -19.42,18.85 m 4.34,423.01 c -12.97,-3 -12.45,-26.21 4.43,-25.91 18.92,0.34 16.76,30.81 -4.43,25.91 M 123.43,1.15 c -15.14,-3.03 -11.3,-28.17 5.24,-26.31 17.82,2.01 14.35,30.23 -5.24,26.31 m -4.69,-466.94 c -12.51,-2.86 -11.87,-24.61 3.22,-25.45 20.85,-1.17 18.99,30.52 -3.22,25.45 m -115.19,1.14 c -18.44,-1.01 -16.42,-28.27 2.03,-26.56 15.63,1.44 14.84,27.48 -2.03,26.56 M 0,0 C -13.13,-3.01 -11.74,-26.26 4.43,-25.91 23.97,-25.49 21.16,4.84 0,0 m 181.61,-24.46 c -12.97,-3 -12.45,-26.21 4.43,-25.91 18.92,0.34 16.76,30.81 -4.43,25.91 m 92,-85.02 c -15.39,-3.15 -12.56,-28.03 4.24,-26.46 18.29,1.7 14.99,30.4 -4.24,26.46 M 0,0 C -13.13,-3.01 -11.74,-26.26 4.43,-25.91 23.97,-25.49 21.16,4.84 0,0 m 123.43,1.15 c -15.14,-3.03 -11.3,-28.17 5.24,-26.31 17.82,2.01 14.35,30.23 -5.24,26.31 M 298.05,-174.7 c -13.21,-2.69 -12.68,-23.75 1.46,-26.04 20.11,-3.28 20.75,30.57 -1.46,26.04 m 1.18,-118.77 c -15.76,-2.76 -12.98,-28.07 4.23,-26.46 16.77,1.58 14.7,29.76 -4.23,26.46 m 0,0 c -15.76,-2.76 -12.98,-28.07 4.23,-26.46 16.77,1.58 14.7,29.76 -4.23,26.46 m -1.18,118.77 c -13.21,-2.69 -12.68,-23.75 1.46,-26.04 20.11,-3.28 20.75,30.57 -1.46,26.04 m -24.44,65.22 c -15.39,-3.15 -12.56,-28.03 4.24,-26.46 18.29,1.7 14.99,30.4 -4.24,26.46 m -92,85.02 c -12.97,-3 -12.45,-26.21 4.43,-25.91 18.92,0.34 16.76,30.81 -4.43,25.91 M 123.43,1.15 c -15.14,-3.03 -11.3,-28.17 5.24,-26.31 17.82,2.01 14.35,30.23 -5.24,26.31 M 0,0 C -13.13,-3.01 -11.74,-26.26 4.43,-25.91 23.97,-25.49 21.16,4.84 0,0 M 0,0 C -13.13,-3.01 -11.74,-26.26 4.43,-25.91 23.97,-25.49 21.16,4.84 0,0 m 123.43,1.15 c -15.14,-3.03 -11.3,-28.17 5.24,-26.31 17.82,2.01 14.35,30.23 -5.24,26.31 m 0,0 c -15.14,-3.03 -11.3,-28.17 5.24,-26.31 17.82,2.01 14.35,30.23 -5.24,26.31 M 0,0 C -13.13,-3.01 -11.74,-26.26 4.43,-25.91 23.97,-25.49 21.16,4.84 0,0" /></g><g
           transform="translate(592.251,667.8435)"
           id="g24"><path
             id="path26"
             style="fill:#82dfd8;fill-opacity:1;fill-rule:nonzero;stroke:none"
             d="M 0,0 C -16.88,-0.3 -17.4,22.91 -4.43,25.91 16.76,30.81 18.92,0.34 0,0" /></g><g
           transform="translate(684.061,582.2735)"
           id="g28"><path
             id="path30"
             style="fill:#82dfd8;fill-opacity:1;fill-rule:nonzero;stroke:none"
             d="M 0,0 C -16.8,-1.57 -19.63,23.31 -4.24,26.46 14.99,30.4 18.29,1.7 0,0" /></g><g
           transform="translate(410.6409,692.3035)"
           id="g32"><path
             id="path34"
             style="fill:#82dfd8;fill-opacity:1;fill-rule:nonzero;stroke:none"
             d="M 0,0 C -16.17,-0.35 -17.56,22.9 -4.43,25.91 16.73,30.75 19.54,0.42 0,0" /></g><g
           transform="translate(534.8809,693.0535)"
           id="g36"><path
             id="path38"
             style="fill:#82dfd8;fill-opacity:1;fill-rule:nonzero;stroke:none"
             d="M 0,0 C -16.54,-1.86 -20.38,23.28 -5.24,26.31 14.35,30.23 17.82,2.01 0,0" /></g><g
           transform="translate(264.9709,579.9735)"
           id="g40"><path
             id="path42"
             style="fill:#82dfd8;fill-opacity:1;fill-rule:nonzero;stroke:none"
             d="M 0,0 C -18.67,-2.08 -20.47,23.4 -4.23,26.48 12.76,29.7 17.68,1.96 0,0" /></g><g
           transform="translate(350.941,665.1135)"
           id="g44"><path
             id="path46"
             style="fill:#82dfd8;fill-opacity:1;fill-rule:nonzero;stroke:none"
             d="M 0,0 C -17.03,-1.92 -19.11,23.13 -5.27,26.31 13.92,30.73 18.11,2.03 0,0" /></g><g
           transform="translate(235.101,542.3535)"
           id="g48"><path
             id="path50"
             style="fill:#82dfd8;fill-opacity:1;fill-rule:nonzero;stroke:none"
             d="M 0,0 C 20.09,4.11 22.26,-24.35 5.24,-26.3 -11.54,-28.21 -15.67,-3.21 0,0" /></g><g
           transform="translate(240.5109,399.4535)"
           id="g52"><path
             id="path54"
             style="fill:#82dfd8;fill-opacity:1;fill-rule:nonzero;stroke:none"
             d="M 0,0 C -17.65,-1.68 -19.62,23.97 -4.22,26.47 14.71,29.55 16.77,1.59 0,0" /></g><g
           transform="translate(263.751,336.9135)"
           id="g56"><path
             id="path58"
             style="fill:#82dfd8;fill-opacity:1;fill-rule:nonzero;stroke:none"
             d="M 0,0 C -16.54,-0.47 -17.99,23.29 -4.2,26.11 16.15,30.26 18.51,0.52 0,0" /></g><g
           transform="translate(348.7809,251.5535)"
           id="g60"><path
             id="path62"
             style="fill:#82dfd8;fill-opacity:1;fill-rule:nonzero;stroke:none"
             d="M 0,0 C -15.83,-1.13 -18.27,23.25 -4.27,26.48 15.17,30.97 19.24,1.36 0,0" /></g><g
           transform="translate(411.791,227.0035)"
           id="g64"><path
             id="path66"
             style="fill:#82dfd8;fill-opacity:1;fill-rule:nonzero;stroke:none"
             d="M 0,0 C -18.45,-1.71 -20.47,25.55 -2.03,26.56 14.84,27.48 15.63,1.44 0,0" /></g><g
           transform="translate(528.171,226.9735)"
           id="g68"><path
             id="path70"
             style="fill:#82dfd8;fill-opacity:1;fill-rule:nonzero;stroke:none"
             d="M 0,0 C -15.09,0.84 -15.73,22.59 -3.22,25.45 18.99,30.52 20.85,-1.17 0,0" /></g><g
           transform="translate(602.9009,251.8935)"
           id="g72"><path
             id="path74"
             style="fill:#82dfd8;fill-opacity:1;fill-rule:nonzero;stroke:none"
             d="M 0,0 C -12.2,-11.71 -30.93,6.52 -19.42,18.85 -6.82,32.34 13.05,12.54 0,0" /></g><g
           transform="translate(682.9709,336.5835)"
           id="g76"><path
             id="path78"
             style="fill:#82dfd8;fill-opacity:1;fill-rule:nonzero;stroke:none"
             d="M 0,0 C -21.89,-3.55 -21.75,26.49 -3.4,26.09 13.46,25.72 13.16,2.13 0,0" /></g><g
           transform="translate(704.2609,543.5135)"
           id="g80"><path
             id="path82"
             style="fill:#82dfd8;fill-opacity:1;fill-rule:nonzero;stroke:none"
             d="M 0,0 C 22.21,4.53 21.57,-29.32 1.46,-26.04 -12.68,-23.75 -13.21,-2.69 0,0" /></g><g
           transform="translate(709.671,398.2835)"
           id="g84"><path
             id="path86"
             style="fill:#82dfd8;fill-opacity:1;fill-rule:nonzero;stroke:none"
             d="M 0,0 C -17.21,-1.61 -19.99,23.7 -4.23,26.46 14.7,29.76 16.77,1.58 0,0" /></g><g
           transform="translate(528.171,226.9735)"
           id="g88"><path
             id="path90"
             style="fill:#82dfd8;fill-opacity:1;fill-rule:nonzero;stroke:none"
             d="M 0,0 C -15.09,0.84 -15.73,22.59 -3.22,25.45 18.99,30.52 20.85,-1.17 0,0" /></g><g
           transform="translate(411.791,227.0035)"
           id="g92"><path
             id="path94"
             style="fill:#82dfd8;fill-opacity:1;fill-rule:nonzero;stroke:none"
             d="M 0,0 C -18.45,-1.71 -20.47,25.55 -2.03,26.56 14.84,27.48 15.63,1.44 0,0" /></g><g
           transform="translate(240.341,516.0535)"
           id="g96"><path
             id="path98"
             style="fill:#82dfd8;fill-opacity:1;fill-rule:nonzero;stroke:none"
             d="M 0,0 C -16.78,-1.91 -20.91,23.09 -5.24,26.3 14.85,30.41 17.02,1.95 0,0" /></g><g
           transform="translate(240.5109,399.4535)"
           id="g100"><path
             id="path102"
             style="fill:#82dfd8;fill-opacity:1;fill-rule:nonzero;stroke:none"
             d="M 0,0 C -17.65,-1.68 -19.62,23.97 -4.22,26.47 14.71,29.55 16.77,1.59 0,0" /></g><g
           transform="translate(705.7209,517.4735)"
           id="g104"><path
             id="path106"
             style="fill:#82dfd8;fill-opacity:1;fill-rule:nonzero;stroke:none"
             d="M 0,0 C -14.14,2.29 -14.67,23.35 -1.46,26.04 20.75,30.57 20.11,-3.28 0,0" /></g><g
           transform="translate(709.671,398.2835)"
           id="g108"><path
             id="path110"
             style="fill:#82dfd8;fill-opacity:1;fill-rule:nonzero;stroke:none"
             d="M 0,0 C -17.21,-1.61 -19.99,23.7 -4.23,26.46 14.7,29.76 16.77,1.58 0,0" /></g><g
           transform="translate(534.8809,693.0535)"
           id="g112"><path
             id="path114"
             style="fill:#82dfd8;fill-opacity:1;fill-rule:nonzero;stroke:none"
             d="M 0,0 C -16.54,-1.86 -20.38,23.28 -5.24,26.31 14.35,30.23 17.82,2.01 0,0" /></g><g
           transform="translate(410.6409,692.3035)"
           id="g116"><path
             id="path118"
             style="fill:#82dfd8;fill-opacity:1;fill-rule:nonzero;stroke:none"
             d="M 0,0 C -16.17,-0.35 -17.56,22.9 -4.43,25.91 16.73,30.75 19.54,0.42 0,0" /></g><g
           transform="translate(264.9709,579.9735)"
           id="g120"><path
             id="path122"
             style="fill:#82dfd8;fill-opacity:1;fill-rule:nonzero;stroke:none"
             d="M 0,0 C -18.67,-2.08 -20.47,23.4 -4.23,26.48 12.76,29.7 17.68,1.96 0,0" /></g><g
           transform="translate(350.941,665.1135)"
           id="g124"><path
             id="path126"
             style="fill:#82dfd8;fill-opacity:1;fill-rule:nonzero;stroke:none"
             d="M 0,0 C -17.03,-1.92 -19.11,23.13 -5.27,26.31 13.92,30.73 18.11,2.03 0,0" /></g><g
           transform="translate(602.9009,251.8935)"
           id="g128"><path
             id="path130"
             style="fill:#82dfd8;fill-opacity:1;fill-rule:nonzero;stroke:none"
             d="M 0,0 C -12.2,-11.71 -30.93,6.52 -19.42,18.85 -6.82,32.34 13.05,12.54 0,0" /></g><g
           transform="translate(682.9709,336.5835)"
           id="g132"><path
             id="path134"
             style="fill:#82dfd8;fill-opacity:1;fill-rule:nonzero;stroke:none"
             d="M 0,0 C -21.89,-3.55 -21.75,26.49 -3.4,26.09 13.46,25.72 13.16,2.13 0,0" /></g><g
           transform="translate(684.061,582.2735)"
           id="g136"><path
             id="path138"
             style="fill:#82dfd8;fill-opacity:1;fill-rule:nonzero;stroke:none"
             d="M 0,0 C -16.8,-1.57 -19.63,23.31 -4.24,26.46 14.99,30.4 18.29,1.7 0,0" /></g><g
           transform="translate(592.251,667.8435)"
           id="g140"><path
             id="path142"
             style="fill:#82dfd8;fill-opacity:1;fill-rule:nonzero;stroke:none"
             d="M 0,0 C -16.88,-0.3 -17.4,22.91 -4.43,25.91 16.76,30.81 18.92,0.34 0,0" /></g><g
           transform="translate(348.7809,251.5535)"
           id="g144"><path
             id="path146"
             style="fill:#82dfd8;fill-opacity:1;fill-rule:nonzero;stroke:none"
             d="M 0,0 C -15.83,-1.13 -18.27,23.25 -4.27,26.48 15.17,30.97 19.24,1.36 0,0" /></g><g
           transform="translate(263.751,336.9135)"
           id="g148"><path
             id="path150"
             style="fill:#82dfd8;fill-opacity:1;fill-rule:nonzero;stroke:none"
             d="M 0,0 C -16.54,-0.47 -17.99,23.29 -4.2,26.11 16.15,30.26 18.51,0.52 0,0" /></g></g></g></g></svg>